<svg width="113" height="22" viewBox="0 0 113 22" fill="none" xmlns="http://www.w3.org/2000/svg">
<path d="M9.18641 2.42869C9.65635 1.45027 11.0495 1.45027 11.5195 2.42869L13.1663 5.85735C13.3483 6.23617 13.7028 6.50305 14.1172 6.57307L17.8176 7.19837C18.8362 7.37049 19.2524 8.60801 18.5449 9.36073L15.8037 12.277C15.5326 12.5654 15.4084 12.9619 15.4665 13.3534L16.0585 17.3409C16.215 18.3954 15.1009 19.1763 14.163 18.6694L10.9683 16.9426C10.5843 16.7351 10.1216 16.7351 9.73759 16.9426L6.54285 18.6694C5.60502 19.1763 4.49087 18.3954 4.64741 17.3409L5.23935 13.3534C5.29747 12.9619 5.17326 12.5654 4.90221 12.277L2.16098 9.36074C1.45345 8.60801 1.86969 7.37049 2.8883 7.19837L6.58867 6.57307C7.00305 6.50305 7.35762 6.23617 7.53958 5.85735L9.18641 2.42869Z" fill="#FEB300"/>
<path d="M56.4352 2.2587C56.9155 1.31755 58.2603 1.31755 58.7406 2.2587L60.5861 5.87502C60.7741 6.24348 61.127 6.49985 61.5355 6.56482L65.5452 7.20252C66.5887 7.36848 67.0042 8.64744 66.2576 9.39506L63.3885 12.2678C63.0962 12.5605 62.9614 12.9753 63.0259 13.3839L63.6584 17.3943C63.8231 18.438 62.7351 19.2285 61.7934 18.7494L58.1747 16.9085C57.806 16.7209 57.3698 16.7209 57.0011 16.9085L53.3824 18.7494C52.4407 19.2285 51.3527 18.438 51.5173 17.3943L52.1499 13.3839C52.2143 12.9753 52.0796 12.5605 51.7872 12.2678L48.9182 9.39507C48.1716 8.64744 48.5871 7.36848 49.6306 7.20252L53.6402 6.56482C54.0488 6.49985 54.4016 6.24348 54.5897 5.87502L56.4352 2.2587Z" fill="#FEB300"/>
<path d="M79.7301 2.2587C80.2104 1.31755 81.5552 1.31755 82.0355 2.2587L83.881 5.87502C84.0691 6.24348 84.4219 6.49985 84.8305 6.56482L88.8401 7.20252C89.8836 7.36848 90.2991 8.64744 89.5525 9.39506L86.6835 12.2678C86.3911 12.5605 86.2564 12.9753 86.3208 13.3839L86.9534 17.3943C87.118 18.438 86.03 19.2285 85.0883 18.7494L81.4696 16.9085C81.1009 16.7209 80.6647 16.7209 80.296 16.9085L76.6774 18.7494C75.7356 19.2285 74.6476 18.438 74.8123 17.3943L75.4448 13.3839C75.5093 12.9753 75.3745 12.5605 75.0822 12.2678L72.2131 9.39507C71.4665 8.64744 71.882 7.36848 72.9255 7.20252L76.9352 6.56482C77.3437 6.49985 77.6966 6.24348 77.8846 5.87502L79.7301 2.2587Z" fill="#FEB300"/>
<path d="M101.069 2.42869C101.539 1.45027 102.932 1.45027 103.402 2.42869L105.049 5.85735C105.231 6.23617 105.586 6.50305 106 6.57307L109.7 7.19837C110.719 7.37049 111.135 8.60801 110.428 9.36073L107.686 12.277C107.415 12.5654 107.291 12.9619 107.349 13.3534L107.941 17.3409C108.098 18.3954 106.984 19.1763 106.046 18.6694L102.851 16.9426C102.467 16.7351 102.004 16.7351 101.62 16.9426L98.4257 18.6694C97.4878 19.1763 96.3737 18.3954 96.5302 17.3409L97.1222 13.3534C97.1803 12.9619 97.0561 12.5654 96.785 12.277L94.0438 9.36074C93.3363 8.60801 93.7525 7.37049 94.7711 7.19837L98.4715 6.57307C98.8859 6.50305 99.2404 6.23617 99.4224 5.85735L101.069 2.42869Z" fill="#FEB300"/>
<path d="M32.4813 2.42869C32.9513 1.45027 34.3444 1.45027 34.8144 2.42869L36.4612 5.85735C36.6432 6.23617 36.9978 6.50305 37.4121 6.57307L41.1125 7.19837C42.1311 7.37049 42.5474 8.60801 41.8398 9.36073L39.0986 12.277C38.8275 12.5654 38.7033 12.9619 38.7615 13.3534L39.3534 17.3409C39.5099 18.3954 38.3958 19.1763 37.458 18.6694L34.2632 16.9426C33.8792 16.7351 33.4165 16.7351 33.0325 16.9426L29.8378 18.6694C28.8999 19.1763 27.7858 18.3954 27.9423 17.3409L28.5343 13.3534C28.5924 12.9619 28.4682 12.5654 28.1971 12.277L25.4559 9.36074C24.7484 8.60801 25.1646 7.37049 26.1832 7.19837L29.8836 6.57307C30.298 6.50305 30.6525 6.23617 30.8345 5.85735L32.4813 2.42869Z" fill="#FEB300"/>
</svg>
