<svg width="25" height="25" viewBox="0 0 25 25" fill="none" xmlns="http://www.w3.org/2000/svg">
<path d="M0 12.5C0 5.59644 5.59644 0 12.5 0C19.4036 0 25 5.59644 25 12.5C25 19.4036 19.4036 25 12.5 25C5.59644 25 0 19.4036 0 12.5Z" fill="#FFB400"/>
<path fill-rule="evenodd" clip-rule="evenodd" d="M12.5 6C11.0415 6.00077 9.6429 6.55904 8.61161 7.55215C7.58032 8.54526 7.00066 9.89197 7 11.2964C7.10291 12.3747 7.49487 13.4089 8.13751 14.2976C9.25353 15.9198 10.5402 17.427 11.9771 18.7954C12.117 18.9266 12.3046 19 12.5 19C12.6953 19 12.8829 18.9266 13.0229 18.7954C14.4598 17.4271 15.7465 15.9198 16.8625 14.2976C17.5051 13.4089 17.8971 12.3747 18 11.2964C17.9993 9.89199 17.4197 8.54527 16.3884 7.55216C15.3571 6.55905 13.9585 6.00077 12.5 6ZM12.5 8.88889C12.055 8.88885 11.6199 9.0159 11.2498 9.25395C10.8798 9.492 10.5913 9.83037 10.421 10.2263C10.2507 10.6222 10.2061 11.0578 10.2929 11.4781C10.3797 11.8984 10.594 12.2845 10.9086 12.5875C11.2233 12.8906 11.6242 13.0969 12.0607 13.1806C12.4972 13.2642 12.9497 13.2213 13.3608 13.0573C13.772 12.8934 14.1235 12.6157 14.3707 12.2594C14.618 11.9031 14.75 11.4842 14.75 11.0556C14.7497 10.4811 14.5126 9.9302 14.0907 9.52392C13.6688 9.11765 13.0967 8.88924 12.5 8.88889Z" fill="white"/>
</svg>
